ply
format ascii 1.0
comment Created by Blender 2.76 (sub 0) - www.blender.org, source file: ''
element vertex 12
property float x
property float y
property float z
property float nx
property float ny
property float nz
element face 4
property list uchar uint vertex_indices
end_header
0.000000 1.000000 0.000000 0.000000 0.000000 -1.000000
0.866025 -0.500000 0.000000 0.000000 0.000000 -1.000000
-0.866025 -0.500000 0.000000 0.000000 0.000000 -1.000000
0.000000 1.000000 0.000000 0.774597 0.447214 0.447214
0.000000 0.000000 1.000000 0.774597 0.447214 0.447214
0.866025 -0.500000 0.000000 0.774597 0.447214 0.447214
0.866025 -0.500000 0.000000 -0.000000 -0.894427 0.447214
0.000000 0.000000 1.000000 -0.000000 -0.894427 0.447214
-0.866025 -0.500000 0.000000 -0.000000 -0.894427 0.447214
-0.866025 -0.500000 0.000000 -0.774597 0.447214 0.447214
0.000000 0.000000 1.000000 -0.774597 0.447214 0.447214
0.000000 1.000000 0.000000 -0.774597 0.447214 0.447214
3 0 1 2
3 3 4 5
3 6 7 8
3 9 10 11
