ply
format ascii 1.0
comment Created by Blender 2.76 (sub 0) - www.blender.org, source file: ''
element vertex 30
property float x
property float y
property float z
property float nx
property float ny
property float nz
element face 24
property list uchar uint vertex_indices
end_header
-1.000000 1.000000 1.000000 0.000000 1.000000 -0.000000
1.000000 1.000000 1.000000 0.000000 1.000000 -0.000000
0.000000 1.000000 0.000000 0.000000 1.000000 -0.000000
1.000000 1.000000 1.000000 1.000000 0.000000 -0.000000
1.000000 -1.000000 1.000000 1.000000 0.000000 -0.000000
1.000000 0.000000 0.000000 1.000000 0.000000 -0.000000
1.000000 -1.000000 1.000000 0.000000 -1.000000 0.000000
-1.000000 -1.000000 1.000000 0.000000 -1.000000 0.000000
0.000000 -1.000000 0.000000 0.000000 -1.000000 0.000000
-1.000000 -1.000000 -1.000000 -0.000000 -0.000000 -1.000000
-1.000000 1.000000 -1.000000 -0.000000 -0.000000 -1.000000
0.000000 0.000000 -1.000000 -0.000000 -0.000000 -1.000000
1.000000 -1.000000 1.000000 -0.000000 0.000000 1.000000
1.000000 1.000000 1.000000 -0.000000 0.000000 1.000000
0.000000 0.000000 1.000000 -0.000000 0.000000 1.000000
-1.000000 -1.000000 1.000000 -1.000000 0.000000 0.000000
-1.000000 1.000000 1.000000 -1.000000 0.000000 0.000000
-1.000000 0.000000 0.000000 -1.000000 0.000000 0.000000
-1.000000 1.000000 -1.000000 -1.000000 0.000000 0.000000
-1.000000 -1.000000 -1.000000 -1.000000 0.000000 -0.000000
1.000000 1.000000 -1.000000 -0.000000 1.000000 0.000000
-1.000000 1.000000 -1.000000 -0.000000 1.000000 0.000000
1.000000 -1.000000 -1.000000 1.000000 0.000000 -0.000000
1.000000 1.000000 -1.000000 1.000000 0.000000 0.000000
-1.000000 -1.000000 -1.000000 -0.000000 -1.000000 0.000000
1.000000 -1.000000 -1.000000 -0.000000 -1.000000 -0.000000
1.000000 1.000000 -1.000000 0.000000 0.000000 -1.000000
1.000000 -1.000000 -1.000000 0.000000 0.000000 -1.000000
-1.000000 1.000000 1.000000 0.000000 -0.000000 1.000000
-1.000000 -1.000000 1.000000 0.000000 -0.000000 1.000000
3 0 1 2
3 3 4 5
3 6 7 8
3 9 10 11
3 12 13 14
3 15 16 17
3 16 18 17
3 18 19 17
3 19 15 17
3 1 20 2
3 20 21 2
3 21 0 2
3 4 22 5
3 22 23 5
3 23 3 5
3 7 24 8
3 24 25 8
3 25 6 8
3 10 26 11
3 26 27 11
3 27 9 11
3 13 28 14
3 28 29 14
3 29 12 14
