ply
format ascii 1.0
comment Created by Blender 2.79 (sub 0) - www.blender.org, source file: 'tetraSub.blend'
element vertex 60
property float x
property float y
property float z
property float nx
property float ny
property float nz
element face 64
property list uchar uint vertex_indices
end_header
0.000000 2.000000 0.000000 0.000000 0.000000 -1.000000
0.500000 1.500000 0.000000 0.000000 0.000000 -1.000000
0.000000 1.500000 0.000000 0.000000 0.000000 -1.000000
0.000000 2.000000 0.000000 0.577350 0.577350 0.577350
0.000000 1.500000 0.500000 0.577350 0.577350 0.577350
0.500000 1.500000 0.000000 0.577350 0.577350 0.577350
2.000000 0.000000 0.000000 0.000000 -1.000000 0.000000
1.500000 0.000000 0.500000 0.000000 -1.000000 0.000000
1.500000 0.000000 0.000000 0.000000 -1.000000 0.000000
0.000000 0.000000 0.000000 -1.000000 -0.000000 -0.000000
0.000000 0.000000 0.500000 -1.000000 -0.000000 -0.000000
0.000000 0.500000 0.000000 -1.000000 -0.000000 -0.000000
0.000000 1.000000 0.000000 -1.000000 -0.000000 -0.000000
0.000000 1.000000 0.500000 -1.000000 -0.000000 -0.000000
0.000000 1.500000 0.000000 -1.000000 -0.000000 -0.000000
0.000000 0.500000 0.500000 -1.000000 -0.000000 -0.000000
0.000000 0.000000 1.000000 -1.000000 -0.000000 -0.000000
0.000000 0.000000 1.500000 -1.000000 -0.000000 -0.000000
0.000000 0.500000 1.000000 -1.000000 -0.000000 -0.000000
1.000000 0.000000 0.000000 0.000000 -1.000000 0.000000
0.500000 0.000000 0.500000 0.000000 -1.000000 0.000000
0.500000 0.000000 0.000000 0.000000 -1.000000 0.000000
1.000000 0.000000 0.500000 0.000000 -1.000000 0.000000
1.000000 0.000000 1.000000 0.000000 -1.000000 0.000000
0.500000 0.000000 1.500000 0.000000 -1.000000 0.000000
0.500000 0.000000 1.000000 0.000000 -1.000000 0.000000
1.000000 1.000000 0.000000 0.577350 0.577350 0.577350
1.000000 0.500000 0.500000 0.577350 0.577350 0.577350
1.500000 0.500000 0.000000 0.577350 0.577350 0.577350
0.500000 1.000000 0.500000 0.577350 0.577350 0.577350
0.000000 1.000000 1.000000 0.577350 0.577350 0.577350
0.000000 0.500000 1.500000 0.577350 0.577350 0.577350
0.500000 0.500000 1.000000 0.577350 0.577350 0.577350
0.000000 1.000000 0.000000 0.000000 0.000000 -1.000000
0.500000 0.500000 0.000000 0.000000 0.000000 -1.000000
0.000000 0.500000 0.000000 0.000000 0.000000 -1.000000
0.500000 1.000000 0.000000 0.000000 0.000000 -1.000000
1.000000 1.000000 0.000000 0.000000 0.000000 -1.000000
1.500000 0.500000 0.000000 0.000000 0.000000 -1.000000
1.000000 0.500000 0.000000 0.000000 0.000000 -1.000000
1.500000 0.000000 0.000000 0.000000 0.000000 -1.000000
1.000000 0.000000 0.000000 0.000000 0.000000 -1.000000
2.000000 0.000000 0.000000 0.000000 0.000000 -1.000000
0.500000 0.000000 0.000000 0.000000 0.000000 -1.000000
0.000000 0.000000 0.000000 0.000000 0.000000 -1.000000
0.500000 0.000000 1.500000 0.577350 0.577350 0.577350
1.000000 0.000000 1.000000 0.577350 0.577350 0.577350
0.000000 0.000000 2.000000 0.577350 0.577350 0.577350
1.500000 0.000000 0.500000 0.577350 0.577350 0.577350
2.000000 0.000000 0.000000 0.577350 0.577350 0.577350
0.000000 0.000000 1.500000 0.000000 -1.000000 0.000000
0.000000 0.000000 1.000000 0.000000 -1.000000 0.000000
0.000000 0.000000 2.000000 0.000000 -1.000000 0.000000
0.000000 0.000000 0.500000 0.000000 -1.000000 0.000000
0.000000 0.000000 0.000000 0.000000 -1.000000 0.000000
0.000000 0.500000 1.500000 -1.000000 -0.000000 -0.000000
0.000000 1.000000 1.000000 -1.000000 -0.000000 -0.000000
0.000000 0.000000 2.000000 -1.000000 -0.000000 -0.000000
0.000000 1.500000 0.500000 -1.000000 -0.000000 -0.000000
0.000000 2.000000 0.000000 -1.000000 -0.000000 -0.000000
3 0 1 2
3 3 4 5
3 6 7 8
3 9 10 11
3 12 13 14
3 12 15 13
3 16 17 18
3 19 20 21
3 19 22 20
3 23 24 25
3 26 27 28
3 26 29 27
3 30 31 32
3 33 34 35
3 33 36 34
3 37 38 39
3 39 40 41
3 39 38 40
3 38 42 40
3 34 39 41
3 34 36 39
3 36 37 39
3 35 43 44
3 35 34 43
3 34 41 43
3 32 45 46
3 32 31 45
3 31 47 45
3 27 32 46
3 27 29 32
3 29 30 32
3 28 48 49
3 28 27 48
3 27 46 48
3 25 50 51
3 25 24 50
3 24 52 50
3 20 25 51
3 20 22 25
3 22 23 25
3 21 53 54
3 21 20 53
3 20 51 53
3 18 55 56
3 18 17 55
3 17 57 55
3 13 18 56
3 13 15 18
3 15 16 18
3 14 58 59
3 14 13 58
3 13 56 58
3 11 15 12
3 11 10 15
3 10 16 15
3 8 22 19
3 8 7 22
3 7 23 22
3 5 29 26
3 5 4 29
3 4 30 29
3 2 36 33
3 2 1 36
3 1 37 36
